<mxfile host="drawio-plugin" modified="2023-03-29T07:41:52.843Z" agent="5.0 (Macintosh; Intel Mac OS X 10_15_7) AppleWebKit/537.36 (KHTML, like Gecko) Chrome/98.0.4758.102 Safari/537.36" etag="pwPUc7vVPGX-fm0tzzvS" version="20.5.3" type="embed"><diagram id="C5RBs43oDa-KdzZeNtuy" name="Page-1"><mxGraphModel dx="2108" dy="1626" grid="1" gridSize="10" guides="1" tooltips="1" connect="1" arrows="1" fold="1" page="1" pageScale="1" pageWidth="5000" pageHeight="2000" background="#FFFFFF" math="0" shadow="0"><root><mxCell id="WIyWlLk6GJQsqaUBKTNV-0"/><mxCell id="WIyWlLk6GJQsqaUBKTNV-1" parent="WIyWlLk6GJQsqaUBKTNV-0"/><mxCell id="SSxcXqiNUK--LgKjHi_6-20" value="" style="shape=folder;fontStyle=1;spacingTop=10;tabWidth=40;tabHeight=14;tabPosition=left;html=1;strokeColor=#0F8B8D;fontColor=#143642;fillColor=#FAE5C7;" parent="WIyWlLk6GJQsqaUBKTNV-1" vertex="1"><mxGeometry x="1960" y="106" width="380" height="334" as="geometry"/></mxCell><mxCell id="nTzFyxAhzmFNUlLg8_nq-14" value="" style="shape=folder;fontStyle=1;spacingTop=10;tabWidth=50;tabHeight=20;tabPosition=left;html=1;labelBackgroundColor=none;fillColor=#FAE5C7;strokeColor=#0F8B8D;fontColor=#143642;" parent="WIyWlLk6GJQsqaUBKTNV-1" vertex="1"><mxGeometry x="480" y="86" width="1310" height="1640" as="geometry"/></mxCell><mxCell id="nTzFyxAhzmFNUlLg8_nq-11" value="" style="shape=folder;fontStyle=1;spacingTop=10;tabWidth=70;tabHeight=20;tabPosition=left;html=1;labelBackgroundColor=none;fillColor=#FAE5C7;strokeColor=#0F8B8D;fontColor=#143642;" parent="WIyWlLk6GJQsqaUBKTNV-1" vertex="1"><mxGeometry x="80" y="86" width="350" height="600" as="geometry"/></mxCell><mxCell id="Mgfd83Ul1ALBCCJsqbtd-0" value="Game " style="swimlane;fontStyle=1;align=center;verticalAlign=top;childLayout=stackLayout;horizontal=1;startSize=26;horizontalStack=0;resizeParent=1;resizeParentMax=0;resizeLast=0;collapsible=1;marginBottom=0;rounded=0;labelBackgroundColor=none;fillColor=#FAE5C7;strokeColor=#0F8B8D;fontColor=#143642;" parent="WIyWlLk6GJQsqaUBKTNV-1" vertex="1"><mxGeometry x="100" y="120" width="290" height="290" as="geometry"><mxRectangle x="30" y="20" width="80" height="30" as="alternateBounds"/></mxGeometry></mxCell><mxCell id="Mgfd83Ul1ALBCCJsqbtd-1" value="- MAX_PLAYERS: int &#10;- numPlayers: int&#10;- players: Player[4]&#10;- chairman: Player&#10;- board: ServerBoard&#10;- bucketOfPO: PrivateObjective[12]&#10;- bucketOfCO: CommonObjective[12]" style="text;strokeColor=none;fillColor=none;align=left;verticalAlign=top;spacingLeft=4;spacingRight=4;overflow=hidden;rotatable=0;points=[[0,0.5],[1,0.5]];portConstraint=eastwest;fontStyle=0;rounded=0;labelBackgroundColor=none;fontColor=#143642;" parent="Mgfd83Ul1ALBCCJsqbtd-0" vertex="1"><mxGeometry y="26" width="290" height="124" as="geometry"/></mxCell><mxCell id="Mgfd83Ul1ALBCCJsqbtd-2" value="" style="line;strokeWidth=1;fillColor=none;align=left;verticalAlign=middle;spacingTop=-1;spacingLeft=3;spacingRight=3;rotatable=0;labelPosition=right;points=[];portConstraint=eastwest;strokeColor=#0F8B8D;rounded=0;labelBackgroundColor=none;fontColor=#143642;" parent="Mgfd83Ul1ALBCCJsqbtd-0" vertex="1"><mxGeometry y="150" width="290" height="10" as="geometry"/></mxCell><mxCell id="Mgfd83Ul1ALBCCJsqbtd-3" value="+ startGame()&#10;+ endGame()&#10;+ restartGame()&#10;+ nicknameTaken(String): boolean&#10;- setCommonObjective()&#10;- setPrivateObjetive()&#10;- shuffleObjectiveList()&#10;- setActivePlayer" style="text;strokeColor=none;fillColor=none;align=left;verticalAlign=top;spacingLeft=4;spacingRight=4;overflow=hidden;rotatable=0;points=[[0,0.5],[1,0.5]];portConstraint=eastwest;rounded=0;labelBackgroundColor=none;fontColor=#143642;" parent="Mgfd83Ul1ALBCCJsqbtd-0" vertex="1"><mxGeometry y="160" width="290" height="130" as="geometry"/></mxCell><mxCell id="Mgfd83Ul1ALBCCJsqbtd-8" value="Board" style="swimlane;fontStyle=1;align=center;verticalAlign=top;childLayout=stackLayout;horizontal=1;startSize=26;horizontalStack=0;resizeParent=1;resizeParentMax=0;resizeLast=0;collapsible=1;marginBottom=0;rounded=0;labelBackgroundColor=none;fillColor=#FAE5C7;strokeColor=#0F8B8D;fontColor=#143642;" parent="WIyWlLk6GJQsqaUBKTNV-1" vertex="1"><mxGeometry x="535" y="296" width="260" height="388" as="geometry"/></mxCell><mxCell id="Mgfd83Ul1ALBCCJsqbtd-9" value="- DIM: int&#10;- gameBoard: Card[DIM][DIM]&#10;+ commonObjective_1: CommonObjective &#10;+ commonObjective_2: CommonObjective &#10;+ pointsCO_1: LinkedList&lt;Integer&gt;&#10;+ pointsCO_2: LinkedList&lt;Integer&gt;&#10;+ player: Player" style="text;strokeColor=none;fillColor=none;align=left;verticalAlign=top;spacingLeft=4;spacingRight=4;overflow=hidden;rotatable=0;points=[[0,0.5],[1,0.5]];portConstraint=eastwest;rounded=0;labelBackgroundColor=none;fontColor=#143642;" parent="Mgfd83Ul1ALBCCJsqbtd-8" vertex="1"><mxGeometry y="26" width="260" height="104" as="geometry"/></mxCell><mxCell id="Mgfd83Ul1ALBCCJsqbtd-10" value="" style="line;strokeWidth=1;fillColor=none;align=left;verticalAlign=middle;spacingTop=-1;spacingLeft=3;spacingRight=3;rotatable=0;labelPosition=right;points=[];portConstraint=eastwest;strokeColor=#0F8B8D;rounded=0;labelBackgroundColor=none;fontColor=#143642;" parent="Mgfd83Ul1ALBCCJsqbtd-8" vertex="1"><mxGeometry y="130" width="260" height="18" as="geometry"/></mxCell><mxCell id="Mgfd83Ul1ALBCCJsqbtd-11" value="+ getGameBoard(): Card[][]&#10;+ getCO_1(): CommonObjective&#10;+ getCO_2(): CommonObjective&#10;- createBoard(int)&#10;- isValidIndex(int, int): boolean&#10;- isAlone(int, int): boolean&#10;- isBoardUnplayable(): boolean&#10;- hasOneFreeSide(int, int): boolean&#10;- isCardPickable(ArrayList&lt;Integer&gt;): boolean&#10;- areCardAligned(ArrayList&lt;Integer&gt;): boolean&#10;+ createBoard(int)&#10;+ fillBoard()&#10;+ shuffleCardsBucket&#10;+ updateBoard(Board)&#10;+ sendCurrentBoard()  &#10;- draw()" style="text;strokeColor=none;fillColor=none;align=left;verticalAlign=top;spacingLeft=4;spacingRight=4;overflow=hidden;rotatable=0;points=[[0,0.5],[1,0.5]];portConstraint=eastwest;rounded=0;labelBackgroundColor=none;fontColor=#143642;" parent="Mgfd83Ul1ALBCCJsqbtd-8" vertex="1"><mxGeometry y="148" width="260" height="240" as="geometry"/></mxCell><mxCell id="Mgfd83Ul1ALBCCJsqbtd-13" value="Player" style="swimlane;fontStyle=1;align=center;verticalAlign=top;childLayout=stackLayout;horizontal=1;startSize=26;horizontalStack=0;resizeParent=1;resizeParentMax=0;resizeLast=0;collapsible=1;marginBottom=0;rounded=0;labelBackgroundColor=none;fillColor=#FAE5C7;strokeColor=#0F8B8D;fontColor=#143642;" parent="WIyWlLk6GJQsqaUBKTNV-1" vertex="1"><mxGeometry x="870" y="116" width="310" height="260" as="geometry"/></mxCell><mxCell id="Mgfd83Ul1ALBCCJsqbtd-14" value="- name: String&#10;- isChairMan: boolean&#10;- library: Library&#10;- objective: PrivateObjective&#10;+ pointsUntilNow: int&#10;- state: State&#10;- board: ClientBoard" style="text;strokeColor=none;fillColor=none;align=left;verticalAlign=top;spacingLeft=4;spacingRight=4;overflow=hidden;rotatable=0;points=[[0,0.5],[1,0.5]];portConstraint=eastwest;rounded=0;labelBackgroundColor=none;fontColor=#143642;" parent="Mgfd83Ul1ALBCCJsqbtd-13" vertex="1"><mxGeometry y="26" width="310" height="114" as="geometry"/></mxCell><mxCell id="Mgfd83Ul1ALBCCJsqbtd-15" value="" style="line;strokeWidth=1;fillColor=none;align=left;verticalAlign=middle;spacingTop=-1;spacingLeft=3;spacingRight=3;rotatable=0;labelPosition=right;points=[];portConstraint=eastwest;strokeColor=#0F8B8D;rounded=0;labelBackgroundColor=none;fontColor=#143642;" parent="Mgfd83Ul1ALBCCJsqbtd-13" vertex="1"><mxGeometry y="140" width="310" height="8" as="geometry"/></mxCell><mxCell id="Mgfd83Ul1ALBCCJsqbtd-16" value="- pickCards(ArrayList&lt;int&gt;): boolean&#10;- deployCards(ArrayList&lt;Card&gt;, int): boolean&#10;- chooseCol(int): int&#10;- chooseCardsOrder(ArrayList&lt;Card&gt;):ArrayList&lt;Card&gt;&#10;+ getState(): State&#10;+ setState(State)" style="text;strokeColor=none;fillColor=none;align=left;verticalAlign=top;spacingLeft=4;spacingRight=4;overflow=hidden;rotatable=0;points=[[0,0.5],[1,0.5]];portConstraint=eastwest;rounded=0;labelBackgroundColor=none;fontColor=#143642;" parent="Mgfd83Ul1ALBCCJsqbtd-13" vertex="1"><mxGeometry y="148" width="310" height="112" as="geometry"/></mxCell><mxCell id="W-shWDO9MT4DzFma6A6Y-0" value="Library" style="swimlane;fontStyle=1;align=center;verticalAlign=top;childLayout=stackLayout;horizontal=1;startSize=26;horizontalStack=0;resizeParent=1;resizeParentMax=0;resizeLast=0;collapsible=1;marginBottom=0;rounded=0;labelBackgroundColor=none;fillColor=#FAE5C7;strokeColor=#0F8B8D;fontColor=#143642;" parent="WIyWlLk6GJQsqaUBKTNV-1" vertex="1"><mxGeometry x="1230" y="386" width="200" height="250" as="geometry"/></mxCell><mxCell id="W-shWDO9MT4DzFma6A6Y-1" value="- ROWS: int&#10;- COLS: int&#10;- library: Card[ROWS][COLS]&#10;- visitedMatrix: int[ROWS][COLS]&#10;- countVisitedCards: int" style="text;strokeColor=none;fillColor=none;align=left;verticalAlign=top;spacingLeft=4;spacingRight=4;overflow=hidden;rotatable=0;points=[[0,0.5],[1,0.5]];portConstraint=eastwest;rounded=0;labelBackgroundColor=none;fontColor=#143642;" parent="W-shWDO9MT4DzFma6A6Y-0" vertex="1"><mxGeometry y="26" width="200" height="74" as="geometry"/></mxCell><mxCell id="W-shWDO9MT4DzFma6A6Y-2" value="" style="line;strokeWidth=1;fillColor=none;align=left;verticalAlign=middle;spacingTop=-1;spacingLeft=3;spacingRight=3;rotatable=0;labelPosition=right;points=[];portConstraint=eastwest;strokeColor=#0F8B8D;rounded=0;labelBackgroundColor=none;fontColor=#143642;" parent="W-shWDO9MT4DzFma6A6Y-0" vertex="1"><mxGeometry y="100" width="200" height="8" as="geometry"/></mxCell><mxCell id="W-shWDO9MT4DzFma6A6Y-3" value="+ isFull(): boolean&#10;+ checkCol(int, int): boolean&#10;- getFirstFreeCard(int): int&#10;+ insertCards(int, ArrayList&lt;Card&gt;)&#10;- resetVisitedMatrix()&#10;- indexNotValid(int, int): boolean&#10;- dfs(int, int, Color)&#10;+ countGroupedPoints(): int&#10;- draw()" style="text;strokeColor=none;fillColor=none;align=left;verticalAlign=top;spacingLeft=4;spacingRight=4;overflow=hidden;rotatable=0;points=[[0,0.5],[1,0.5]];portConstraint=eastwest;rounded=0;labelBackgroundColor=none;fontColor=#143642;" parent="W-shWDO9MT4DzFma6A6Y-0" vertex="1"><mxGeometry y="108" width="200" height="142" as="geometry"/></mxCell><mxCell id="W-shWDO9MT4DzFma6A6Y-10" value="Card" style="swimlane;fontStyle=1;align=center;verticalAlign=top;childLayout=stackLayout;horizontal=1;startSize=26;horizontalStack=0;resizeParent=1;resizeParentMax=0;resizeLast=0;collapsible=1;marginBottom=0;rounded=0;labelBackgroundColor=none;fillColor=#FAE5C7;strokeColor=#0F8B8D;fontColor=#143642;" parent="WIyWlLk6GJQsqaUBKTNV-1" vertex="1"><mxGeometry x="1139" y="696" width="160" height="160" as="geometry"/></mxCell><mxCell id="W-shWDO9MT4DzFma6A6Y-11" value="+ color: Color&#10;- imagePath: String&#10;- int x&#10;- int y&#10;" style="text;strokeColor=none;fillColor=none;align=left;verticalAlign=top;spacingLeft=4;spacingRight=4;overflow=hidden;rotatable=0;points=[[0,0.5],[1,0.5]];portConstraint=eastwest;rounded=0;labelBackgroundColor=none;fontColor=#143642;" parent="W-shWDO9MT4DzFma6A6Y-10" vertex="1"><mxGeometry y="26" width="160" height="64" as="geometry"/></mxCell><mxCell id="W-shWDO9MT4DzFma6A6Y-12" value="" style="line;strokeWidth=1;fillColor=none;align=left;verticalAlign=middle;spacingTop=-1;spacingLeft=3;spacingRight=3;rotatable=0;labelPosition=right;points=[];portConstraint=eastwest;strokeColor=#0F8B8D;rounded=0;labelBackgroundColor=none;fontColor=#143642;" parent="W-shWDO9MT4DzFma6A6Y-10" vertex="1"><mxGeometry y="90" width="160" height="8" as="geometry"/></mxCell><mxCell id="W-shWDO9MT4DzFma6A6Y-13" value="+ setX(int)&#10;+ setY(int)&#10;- draw()&#10;" style="text;strokeColor=none;fillColor=none;align=left;verticalAlign=top;spacingLeft=4;spacingRight=4;overflow=hidden;rotatable=0;points=[[0,0.5],[1,0.5]];portConstraint=eastwest;rounded=0;labelBackgroundColor=none;fontColor=#143642;" parent="W-shWDO9MT4DzFma6A6Y-10" vertex="1"><mxGeometry y="98" width="160" height="62" as="geometry"/></mxCell><mxCell id="W-shWDO9MT4DzFma6A6Y-14" value="&lt;&lt;enumeration&gt;&gt;&#10;Color" style="swimlane;fontStyle=0;childLayout=stackLayout;horizontal=1;startSize=40;fillColor=none;horizontalStack=0;resizeParent=1;resizeParentMax=0;resizeLast=0;collapsible=1;marginBottom=0;rounded=0;labelBackgroundColor=none;strokeColor=#0F8B8D;fontColor=#143642;" parent="WIyWlLk6GJQsqaUBKTNV-1" vertex="1"><mxGeometry x="1464" y="626" width="110" height="160" as="geometry"/></mxCell><mxCell id="W-shWDO9MT4DzFma6A6Y-15" value="GREEN&#10;WHITE&#10;YELLOW&#10;BLUE&#10;CYAN&#10;PINK&#10;EMPTY" style="text;strokeColor=none;fillColor=none;align=left;verticalAlign=top;spacingLeft=4;spacingRight=4;overflow=hidden;rotatable=0;points=[[0,0.5],[1,0.5]];portConstraint=eastwest;rounded=0;labelBackgroundColor=none;fontColor=#143642;" parent="W-shWDO9MT4DzFma6A6Y-14" vertex="1"><mxGeometry y="40" width="110" height="120" as="geometry"/></mxCell><mxCell id="W-shWDO9MT4DzFma6A6Y-20" value="" style="endArrow=open;endFill=1;endSize=12;html=1;rounded=0;labelBackgroundColor=none;strokeColor=#A8201A;fontColor=default;" parent="WIyWlLk6GJQsqaUBKTNV-1" edge="1"><mxGeometry width="160" relative="1" as="geometry"><mxPoint x="1460" y="746" as="sourcePoint"/><mxPoint x="1299" y="746" as="targetPoint"/><Array as="points"><mxPoint x="1448" y="746"/><mxPoint x="1369" y="746"/></Array></mxGeometry></mxCell><mxCell id="sbjhCUEC5wQFAyR_Rim3-13" value="constitute" style="edgeLabel;html=1;align=center;verticalAlign=middle;resizable=0;points=[];labelBackgroundColor=none;fontColor=#143642;rounded=0;" parent="W-shWDO9MT4DzFma6A6Y-20" vertex="1" connectable="0"><mxGeometry x="0.191" relative="1" as="geometry"><mxPoint y="13" as="offset"/></mxGeometry></mxCell><mxCell id="W-shWDO9MT4DzFma6A6Y-22" value="" style="endArrow=open;endFill=1;endSize=12;html=1;rounded=0;exitX=0.979;exitY=-0.009;exitDx=0;exitDy=0;exitPerimeter=0;entryX=1.008;entryY=0.565;entryDx=0;entryDy=0;labelBackgroundColor=none;strokeColor=#A8201A;fontColor=default;entryPerimeter=0;" parent="WIyWlLk6GJQsqaUBKTNV-1" source="Y6HEwSbdjoRSRPUhXtkS-57" target="Mgfd83Ul1ALBCCJsqbtd-11" edge="1"><mxGeometry width="160" relative="1" as="geometry"><mxPoint x="1029" y="436" as="sourcePoint"/><mxPoint x="989" y="656" as="targetPoint"/><Array as="points"><mxPoint x="1060" y="746"/><mxPoint x="1060" y="577"/></Array></mxGeometry></mxCell><mxCell id="sbjhCUEC5wQFAyR_Rim3-4" value="withdraw from" style="edgeLabel;html=1;align=center;verticalAlign=middle;resizable=0;points=[];labelBackgroundColor=none;fontColor=#143642;rounded=0;" parent="W-shWDO9MT4DzFma6A6Y-22" vertex="1" connectable="0"><mxGeometry x="0.1582" y="2" relative="1" as="geometry"><mxPoint x="-52" y="-13" as="offset"/></mxGeometry></mxCell><mxCell id="W-shWDO9MT4DzFma6A6Y-27" value="&lt;&lt;abstract&gt;&gt;&#10;Objective" style="swimlane;fontStyle=1;align=center;verticalAlign=top;childLayout=stackLayout;horizontal=1;startSize=40;horizontalStack=0;resizeParent=1;resizeParentMax=0;resizeLast=0;collapsible=1;marginBottom=0;rounded=0;labelBackgroundColor=none;fillColor=#FAE5C7;strokeColor=#0F8B8D;fontColor=#143642;" parent="WIyWlLk6GJQsqaUBKTNV-1" vertex="1"><mxGeometry x="639" y="816" width="160" height="150" as="geometry"/></mxCell><mxCell id="W-shWDO9MT4DzFma6A6Y-28" value="# imagePath: String &#10;+ index: int &#10;- ROWS: int&#10;- COLS: int" style="text;strokeColor=none;fillColor=none;align=left;verticalAlign=top;spacingLeft=4;spacingRight=4;overflow=hidden;rotatable=0;points=[[0,0.5],[1,0.5]];portConstraint=eastwest;rounded=0;labelBackgroundColor=none;fontColor=#143642;" parent="W-shWDO9MT4DzFma6A6Y-27" vertex="1"><mxGeometry y="40" width="160" height="70" as="geometry"/></mxCell><mxCell id="W-shWDO9MT4DzFma6A6Y-29" value="" style="line;strokeWidth=1;fillColor=none;align=left;verticalAlign=middle;spacingTop=-1;spacingLeft=3;spacingRight=3;rotatable=0;labelPosition=right;points=[];portConstraint=eastwest;strokeColor=#0F8B8D;rounded=0;labelBackgroundColor=none;fontColor=#143642;" parent="W-shWDO9MT4DzFma6A6Y-27" vertex="1"><mxGeometry y="110" width="160" height="4" as="geometry"/></mxCell><mxCell id="W-shWDO9MT4DzFma6A6Y-30" value="- draw()" style="text;strokeColor=none;fillColor=none;align=left;verticalAlign=top;spacingLeft=4;spacingRight=4;overflow=hidden;rotatable=0;points=[[0,0.5],[1,0.5]];portConstraint=eastwest;rounded=0;labelBackgroundColor=none;fontColor=#143642;" parent="W-shWDO9MT4DzFma6A6Y-27" vertex="1"><mxGeometry y="114" width="160" height="36" as="geometry"/></mxCell><mxCell id="W-shWDO9MT4DzFma6A6Y-40" value="PrivateObjective" style="swimlane;fontStyle=1;align=center;verticalAlign=top;childLayout=stackLayout;horizontal=1;startSize=26;horizontalStack=0;resizeParent=1;resizeParentMax=0;resizeLast=0;collapsible=1;marginBottom=0;rounded=0;labelBackgroundColor=none;fillColor=#FAE5C7;strokeColor=#0F8B8D;fontColor=#143642;" parent="WIyWlLk6GJQsqaUBKTNV-1" vertex="1"><mxGeometry x="510" y="1076" width="240" height="150" as="geometry"/></mxCell><mxCell id="W-shWDO9MT4DzFma6A6Y-41" value="- arrayOfPoints: int[7]&#10;- matrix: Color[ROWS][COLS]&#10;+ objectiveId: int" style="text;strokeColor=none;fillColor=none;align=left;verticalAlign=top;spacingLeft=4;spacingRight=4;overflow=hidden;rotatable=0;points=[[0,0.5],[1,0.5]];portConstraint=eastwest;rounded=0;labelBackgroundColor=none;fontColor=#143642;" parent="W-shWDO9MT4DzFma6A6Y-40" vertex="1"><mxGeometry y="26" width="240" height="54" as="geometry"/></mxCell><mxCell id="W-shWDO9MT4DzFma6A6Y-42" value="" style="line;strokeWidth=1;fillColor=none;align=left;verticalAlign=middle;spacingTop=-1;spacingLeft=3;spacingRight=3;rotatable=0;labelPosition=right;points=[];portConstraint=eastwest;strokeColor=#0F8B8D;rounded=0;labelBackgroundColor=none;fontColor=#143642;" parent="W-shWDO9MT4DzFma6A6Y-40" vertex="1"><mxGeometry y="80" width="240" height="8" as="geometry"/></mxCell><mxCell id="W-shWDO9MT4DzFma6A6Y-43" value="+ countPoints(Card [ROWS][COLS]): int&#10;- countMatch(Card[ROWS][COLS]): int&#10;+ draw" style="text;strokeColor=none;fillColor=none;align=left;verticalAlign=top;spacingLeft=4;spacingRight=4;overflow=hidden;rotatable=0;points=[[0,0.5],[1,0.5]];portConstraint=eastwest;rounded=0;labelBackgroundColor=none;fontColor=#143642;" parent="W-shWDO9MT4DzFma6A6Y-40" vertex="1"><mxGeometry y="88" width="240" height="62" as="geometry"/></mxCell><mxCell id="W-shWDO9MT4DzFma6A6Y-76" value="Algo_CO_2" style="swimlane;fontStyle=1;align=center;verticalAlign=top;childLayout=stackLayout;horizontal=1;startSize=26;horizontalStack=0;resizeParent=1;resizeParentMax=0;resizeLast=0;collapsible=1;marginBottom=0;rounded=0;labelBackgroundColor=none;fillColor=#FAE5C7;strokeColor=#0F8B8D;fontColor=#143642;" parent="WIyWlLk6GJQsqaUBKTNV-1" vertex="1"><mxGeometry x="1110" y="1256" width="261" height="60" as="geometry"/></mxCell><mxCell id="W-shWDO9MT4DzFma6A6Y-78" value="" style="line;strokeWidth=1;fillColor=none;align=left;verticalAlign=middle;spacingTop=-1;spacingLeft=3;spacingRight=3;rotatable=0;labelPosition=right;points=[];portConstraint=eastwest;strokeColor=#0F8B8D;rounded=0;labelBackgroundColor=none;fontColor=#143642;" parent="W-shWDO9MT4DzFma6A6Y-76" vertex="1"><mxGeometry y="26" width="261" height="8" as="geometry"/></mxCell><mxCell id="WhVy480qOBjxfBd9q4s9-7" value="+ checkMatch(Card[ROWS][COLS]): boolean" style="text;strokeColor=none;fillColor=none;align=left;verticalAlign=top;spacingLeft=4;spacingRight=4;overflow=hidden;rotatable=0;points=[[0,0.5],[1,0.5]];portConstraint=eastwest;rounded=0;labelBackgroundColor=none;fontColor=#143642;" parent="W-shWDO9MT4DzFma6A6Y-76" vertex="1"><mxGeometry y="34" width="261" height="26" as="geometry"/></mxCell><mxCell id="l9PI8_7-ofRsT48dgpmU-10" value="Algo_CO_5&#10;" style="swimlane;fontStyle=1;align=center;verticalAlign=top;childLayout=stackLayout;horizontal=1;startSize=26;horizontalStack=0;resizeParent=1;resizeParentMax=0;resizeLast=0;collapsible=1;marginBottom=0;rounded=0;labelBackgroundColor=none;fillColor=#FAE5C7;strokeColor=#0F8B8D;fontColor=#143642;" parent="WIyWlLk6GJQsqaUBKTNV-1" vertex="1"><mxGeometry x="1100" y="1376" width="261" height="60" as="geometry"/></mxCell><mxCell id="l9PI8_7-ofRsT48dgpmU-11" value="" style="line;strokeWidth=1;fillColor=none;align=left;verticalAlign=middle;spacingTop=-1;spacingLeft=3;spacingRight=3;rotatable=0;labelPosition=right;points=[];portConstraint=eastwest;strokeColor=#0F8B8D;rounded=0;labelBackgroundColor=none;fontColor=#143642;" parent="l9PI8_7-ofRsT48dgpmU-10" vertex="1"><mxGeometry y="26" width="261" height="8" as="geometry"/></mxCell><mxCell id="WhVy480qOBjxfBd9q4s9-5" value="+ checkMatch(Card[ROWS][COLS]): boolean" style="text;strokeColor=none;fillColor=none;align=left;verticalAlign=top;spacingLeft=4;spacingRight=4;overflow=hidden;rotatable=0;points=[[0,0.5],[1,0.5]];portConstraint=eastwest;rounded=0;labelBackgroundColor=none;fontColor=#143642;" parent="l9PI8_7-ofRsT48dgpmU-10" vertex="1"><mxGeometry y="34" width="261" height="26" as="geometry"/></mxCell><mxCell id="l9PI8_7-ofRsT48dgpmU-13" value="Algo_CO_8" style="swimlane;fontStyle=1;align=center;verticalAlign=top;childLayout=stackLayout;horizontal=1;startSize=26;horizontalStack=0;resizeParent=1;resizeParentMax=0;resizeLast=0;collapsible=1;marginBottom=0;rounded=0;labelBackgroundColor=none;fillColor=#FAE5C7;strokeColor=#0F8B8D;fontColor=#143642;" parent="WIyWlLk6GJQsqaUBKTNV-1" vertex="1"><mxGeometry x="1100" y="1496" width="261" height="60" as="geometry"/></mxCell><mxCell id="l9PI8_7-ofRsT48dgpmU-14" value="" style="line;strokeWidth=1;fillColor=none;align=left;verticalAlign=middle;spacingTop=-1;spacingLeft=3;spacingRight=3;rotatable=0;labelPosition=right;points=[];portConstraint=eastwest;strokeColor=#0F8B8D;rounded=0;labelBackgroundColor=none;fontColor=#143642;" parent="l9PI8_7-ofRsT48dgpmU-13" vertex="1"><mxGeometry y="26" width="261" height="8" as="geometry"/></mxCell><mxCell id="WhVy480qOBjxfBd9q4s9-2" value="+ checkMatch(Card[ROWS][COLS]): boolean" style="text;strokeColor=none;fillColor=none;align=left;verticalAlign=top;spacingLeft=4;spacingRight=4;overflow=hidden;rotatable=0;points=[[0,0.5],[1,0.5]];portConstraint=eastwest;rounded=0;labelBackgroundColor=none;fontColor=#143642;" parent="l9PI8_7-ofRsT48dgpmU-13" vertex="1"><mxGeometry y="34" width="261" height="26" as="geometry"/></mxCell><mxCell id="l9PI8_7-ofRsT48dgpmU-16" value="Algo_CO_9&#10;" style="swimlane;fontStyle=1;align=center;verticalAlign=top;childLayout=stackLayout;horizontal=1;startSize=26;horizontalStack=0;resizeParent=1;resizeParentMax=0;resizeLast=0;collapsible=1;marginBottom=0;rounded=0;labelBackgroundColor=none;fillColor=#FAE5C7;strokeColor=#0F8B8D;fontColor=#143642;" parent="WIyWlLk6GJQsqaUBKTNV-1" vertex="1"><mxGeometry x="1420" y="1496" width="271" height="60" as="geometry"/></mxCell><mxCell id="l9PI8_7-ofRsT48dgpmU-17" value="" style="line;strokeWidth=1;fillColor=none;align=left;verticalAlign=middle;spacingTop=-1;spacingLeft=3;spacingRight=3;rotatable=0;labelPosition=right;points=[];portConstraint=eastwest;strokeColor=#0F8B8D;rounded=0;labelBackgroundColor=none;fontColor=#143642;" parent="l9PI8_7-ofRsT48dgpmU-16" vertex="1"><mxGeometry y="26" width="271" height="8" as="geometry"/></mxCell><mxCell id="WhVy480qOBjxfBd9q4s9-3" value="+ checkMatch(Card[ROWS][COLS]): boolean" style="text;strokeColor=none;fillColor=none;align=left;verticalAlign=top;spacingLeft=4;spacingRight=4;overflow=hidden;rotatable=0;points=[[0,0.5],[1,0.5]];portConstraint=eastwest;rounded=0;labelBackgroundColor=none;fontColor=#143642;" parent="l9PI8_7-ofRsT48dgpmU-16" vertex="1"><mxGeometry y="34" width="271" height="26" as="geometry"/></mxCell><mxCell id="l9PI8_7-ofRsT48dgpmU-19" value="Algo_CO_6" style="swimlane;fontStyle=1;align=center;verticalAlign=top;childLayout=stackLayout;horizontal=1;startSize=26;horizontalStack=0;resizeParent=1;resizeParentMax=0;resizeLast=0;collapsible=1;marginBottom=0;rounded=0;labelBackgroundColor=none;fillColor=#FAE5C7;strokeColor=#0F8B8D;fontColor=#143642;" parent="WIyWlLk6GJQsqaUBKTNV-1" vertex="1"><mxGeometry x="1420" y="1376" width="271" height="60" as="geometry"/></mxCell><mxCell id="l9PI8_7-ofRsT48dgpmU-20" value="" style="line;strokeWidth=1;fillColor=none;align=left;verticalAlign=middle;spacingTop=-1;spacingLeft=3;spacingRight=3;rotatable=0;labelPosition=right;points=[];portConstraint=eastwest;strokeColor=#0F8B8D;rounded=0;labelBackgroundColor=none;fontColor=#143642;" parent="l9PI8_7-ofRsT48dgpmU-19" vertex="1"><mxGeometry y="26" width="271" height="8" as="geometry"/></mxCell><mxCell id="WhVy480qOBjxfBd9q4s9-4" value="+ checkMatch(Card[ROWS][COLS]): boolean" style="text;strokeColor=none;fillColor=none;align=left;verticalAlign=top;spacingLeft=4;spacingRight=4;overflow=hidden;rotatable=0;points=[[0,0.5],[1,0.5]];portConstraint=eastwest;rounded=0;labelBackgroundColor=none;fontColor=#143642;" parent="l9PI8_7-ofRsT48dgpmU-19" vertex="1"><mxGeometry y="34" width="271" height="26" as="geometry"/></mxCell><mxCell id="l9PI8_7-ofRsT48dgpmU-22" value="Algo_CO_3" style="swimlane;fontStyle=1;align=center;verticalAlign=top;childLayout=stackLayout;horizontal=1;startSize=26;horizontalStack=0;resizeParent=1;resizeParentMax=0;resizeLast=0;collapsible=1;marginBottom=0;movable=1;resizable=1;rotatable=1;deletable=1;editable=1;connectable=1;rounded=0;labelBackgroundColor=none;fillColor=#FAE5C7;strokeColor=#0F8B8D;fontColor=#143642;" parent="WIyWlLk6GJQsqaUBKTNV-1" vertex="1"><mxGeometry x="1420" y="1256" width="271" height="60" as="geometry"/></mxCell><mxCell id="l9PI8_7-ofRsT48dgpmU-23" value="" style="line;strokeWidth=1;fillColor=none;align=left;verticalAlign=middle;spacingTop=-1;spacingLeft=3;spacingRight=3;rotatable=0;labelPosition=right;points=[];portConstraint=eastwest;strokeColor=#0F8B8D;rounded=0;labelBackgroundColor=none;fontColor=#143642;" parent="l9PI8_7-ofRsT48dgpmU-22" vertex="1"><mxGeometry y="26" width="271" height="8" as="geometry"/></mxCell><mxCell id="WhVy480qOBjxfBd9q4s9-6" value="+ checkMatch(Card[ROWS][COLS]): boolean" style="text;strokeColor=none;fillColor=none;align=left;verticalAlign=top;spacingLeft=4;spacingRight=4;overflow=hidden;rotatable=0;points=[[0,0.5],[1,0.5]];portConstraint=eastwest;rounded=0;labelBackgroundColor=none;fontColor=#143642;" parent="l9PI8_7-ofRsT48dgpmU-22" vertex="1"><mxGeometry y="34" width="271" height="26" as="geometry"/></mxCell><mxCell id="l9PI8_7-ofRsT48dgpmU-28" value="Algo_CO_10" style="swimlane;fontStyle=1;align=center;verticalAlign=top;childLayout=stackLayout;horizontal=1;startSize=26;horizontalStack=0;resizeParent=1;resizeParentMax=0;resizeLast=0;collapsible=1;marginBottom=0;rounded=0;labelBackgroundColor=none;fillColor=#FAE5C7;strokeColor=#0F8B8D;fontColor=#143642;" parent="WIyWlLk6GJQsqaUBKTNV-1" vertex="1"><mxGeometry x="770" y="1616" width="269" height="60" as="geometry"/></mxCell><mxCell id="l9PI8_7-ofRsT48dgpmU-29" value="" style="line;strokeWidth=1;fillColor=none;align=left;verticalAlign=middle;spacingTop=-1;spacingLeft=3;spacingRight=3;rotatable=0;labelPosition=right;points=[];portConstraint=eastwest;strokeColor=#0F8B8D;rounded=0;labelBackgroundColor=none;fontColor=#143642;" parent="l9PI8_7-ofRsT48dgpmU-28" vertex="1"><mxGeometry y="26" width="269" height="8" as="geometry"/></mxCell><mxCell id="WhVy480qOBjxfBd9q4s9-11" value="+ checkMatch(Card[ROWS][COLS]): boolean" style="text;strokeColor=none;fillColor=none;align=left;verticalAlign=top;spacingLeft=4;spacingRight=4;overflow=hidden;rotatable=0;points=[[0,0.5],[1,0.5]];portConstraint=eastwest;rounded=0;labelBackgroundColor=none;fontColor=#143642;" parent="l9PI8_7-ofRsT48dgpmU-28" vertex="1"><mxGeometry y="34" width="269" height="26" as="geometry"/></mxCell><mxCell id="l9PI8_7-ofRsT48dgpmU-31" value="Algo_CO_7" style="swimlane;fontStyle=1;align=center;verticalAlign=top;childLayout=stackLayout;horizontal=1;startSize=26;horizontalStack=0;resizeParent=1;resizeParentMax=0;resizeLast=0;collapsible=1;marginBottom=0;rounded=0;labelBackgroundColor=none;fillColor=#FAE5C7;strokeColor=#0F8B8D;fontColor=#143642;" parent="WIyWlLk6GJQsqaUBKTNV-1" vertex="1"><mxGeometry x="770" y="1496" width="269" height="60" as="geometry"/></mxCell><mxCell id="l9PI8_7-ofRsT48dgpmU-32" value="" style="line;strokeWidth=1;fillColor=none;align=left;verticalAlign=middle;spacingTop=-1;spacingLeft=3;spacingRight=3;rotatable=0;labelPosition=right;points=[];portConstraint=eastwest;strokeColor=#0F8B8D;rounded=0;labelBackgroundColor=none;fontColor=#143642;" parent="l9PI8_7-ofRsT48dgpmU-31" vertex="1"><mxGeometry y="26" width="269" height="8" as="geometry"/></mxCell><mxCell id="WhVy480qOBjxfBd9q4s9-8" value="+ checkMatch(Card[ROWS][COLS]): boolean" style="text;strokeColor=none;fillColor=none;align=left;verticalAlign=top;spacingLeft=4;spacingRight=4;overflow=hidden;rotatable=0;points=[[0,0.5],[1,0.5]];portConstraint=eastwest;rounded=0;labelBackgroundColor=none;fontColor=#143642;" parent="l9PI8_7-ofRsT48dgpmU-31" vertex="1"><mxGeometry y="34" width="269" height="26" as="geometry"/></mxCell><mxCell id="l9PI8_7-ofRsT48dgpmU-34" value="Algo_CO_4" style="swimlane;fontStyle=1;align=center;verticalAlign=top;childLayout=stackLayout;horizontal=1;startSize=26;horizontalStack=0;resizeParent=1;resizeParentMax=0;resizeLast=0;collapsible=1;marginBottom=0;rounded=0;labelBackgroundColor=none;fillColor=#FAE5C7;strokeColor=#0F8B8D;fontColor=#143642;" parent="WIyWlLk6GJQsqaUBKTNV-1" vertex="1"><mxGeometry x="770" y="1376" width="269" height="60" as="geometry"/></mxCell><mxCell id="l9PI8_7-ofRsT48dgpmU-35" value="" style="line;strokeWidth=1;fillColor=none;align=left;verticalAlign=middle;spacingTop=-1;spacingLeft=3;spacingRight=3;rotatable=0;labelPosition=right;points=[];portConstraint=eastwest;strokeColor=#0F8B8D;rounded=0;labelBackgroundColor=none;fontColor=#143642;" parent="l9PI8_7-ofRsT48dgpmU-34" vertex="1"><mxGeometry y="26" width="269" height="8" as="geometry"/></mxCell><mxCell id="WhVy480qOBjxfBd9q4s9-1" value="+ checkMatch(Card[ROWS][COLS]): boolean" style="text;strokeColor=none;fillColor=none;align=left;verticalAlign=top;spacingLeft=4;spacingRight=4;overflow=hidden;rotatable=0;points=[[0,0.5],[1,0.5]];portConstraint=eastwest;rounded=0;labelBackgroundColor=none;fontColor=#143642;" parent="l9PI8_7-ofRsT48dgpmU-34" vertex="1"><mxGeometry y="34" width="269" height="26" as="geometry"/></mxCell><mxCell id="l9PI8_7-ofRsT48dgpmU-37" value="Algo_CO_1" style="swimlane;fontStyle=1;align=center;verticalAlign=top;childLayout=stackLayout;horizontal=1;startSize=26;horizontalStack=0;resizeParent=1;resizeParentMax=0;resizeLast=0;collapsible=1;marginBottom=0;rounded=0;labelBackgroundColor=none;fillColor=#FAE5C7;strokeColor=#0F8B8D;fontColor=#143642;" parent="WIyWlLk6GJQsqaUBKTNV-1" vertex="1"><mxGeometry x="770" y="1256" width="269" height="60" as="geometry"/></mxCell><mxCell id="l9PI8_7-ofRsT48dgpmU-38" value="" style="line;strokeWidth=1;fillColor=none;align=left;verticalAlign=middle;spacingTop=-1;spacingLeft=3;spacingRight=3;rotatable=0;labelPosition=right;points=[];portConstraint=eastwest;strokeColor=#0F8B8D;rounded=0;labelBackgroundColor=none;fontColor=#143642;" parent="l9PI8_7-ofRsT48dgpmU-37" vertex="1"><mxGeometry y="26" width="269" height="8" as="geometry"/></mxCell><mxCell id="WhVy480qOBjxfBd9q4s9-0" value="+ checkMatch(Card[ROWS][COLS]): boolean" style="text;strokeColor=none;fillColor=none;align=left;verticalAlign=top;spacingLeft=4;spacingRight=4;overflow=hidden;rotatable=0;points=[[0,0.5],[1,0.5]];portConstraint=eastwest;rounded=0;labelBackgroundColor=none;fontColor=#143642;" parent="l9PI8_7-ofRsT48dgpmU-37" vertex="1"><mxGeometry y="34" width="269" height="26" as="geometry"/></mxCell><mxCell id="l9PI8_7-ofRsT48dgpmU-40" value="Algo_CO_11" style="swimlane;fontStyle=1;align=center;verticalAlign=top;childLayout=stackLayout;horizontal=1;startSize=26;horizontalStack=0;resizeParent=1;resizeParentMax=0;resizeLast=0;collapsible=1;marginBottom=0;rounded=0;labelBackgroundColor=none;fillColor=#FAE5C7;strokeColor=#0F8B8D;fontColor=#143642;" parent="WIyWlLk6GJQsqaUBKTNV-1" vertex="1"><mxGeometry x="1100" y="1616" width="261" height="60" as="geometry"/></mxCell><mxCell id="l9PI8_7-ofRsT48dgpmU-41" value="" style="line;strokeWidth=1;fillColor=none;align=left;verticalAlign=middle;spacingTop=-1;spacingLeft=3;spacingRight=3;rotatable=0;labelPosition=right;points=[];portConstraint=eastwest;strokeColor=#0F8B8D;rounded=0;labelBackgroundColor=none;fontColor=#143642;" parent="l9PI8_7-ofRsT48dgpmU-40" vertex="1"><mxGeometry y="26" width="261" height="8" as="geometry"/></mxCell><mxCell id="WhVy480qOBjxfBd9q4s9-9" value="+ checkMatch(Card[ROWS][COLS]): boolean" style="text;strokeColor=none;fillColor=none;align=left;verticalAlign=top;spacingLeft=4;spacingRight=4;overflow=hidden;rotatable=0;points=[[0,0.5],[1,0.5]];portConstraint=eastwest;rounded=0;labelBackgroundColor=none;fontColor=#143642;" parent="l9PI8_7-ofRsT48dgpmU-40" vertex="1"><mxGeometry y="34" width="261" height="26" as="geometry"/></mxCell><mxCell id="l9PI8_7-ofRsT48dgpmU-43" value="Algo_CO_12" style="swimlane;fontStyle=1;align=center;verticalAlign=top;childLayout=stackLayout;horizontal=1;startSize=26;horizontalStack=0;resizeParent=1;resizeParentMax=0;resizeLast=0;collapsible=1;marginBottom=0;rounded=0;labelBackgroundColor=none;fillColor=#FAE5C7;strokeColor=#0F8B8D;fontColor=#143642;" parent="WIyWlLk6GJQsqaUBKTNV-1" vertex="1"><mxGeometry x="1420" y="1616" width="271" height="60" as="geometry"/></mxCell><mxCell id="l9PI8_7-ofRsT48dgpmU-44" value="" style="line;strokeWidth=1;fillColor=none;align=left;verticalAlign=middle;spacingTop=-1;spacingLeft=3;spacingRight=3;rotatable=0;labelPosition=right;points=[];portConstraint=eastwest;strokeColor=#0F8B8D;rounded=0;labelBackgroundColor=none;fontColor=#143642;" parent="l9PI8_7-ofRsT48dgpmU-43" vertex="1"><mxGeometry y="26" width="271" height="8" as="geometry"/></mxCell><mxCell id="WhVy480qOBjxfBd9q4s9-10" value="+ checkMatch(Card[ROWS][COLS]): boolean" style="text;strokeColor=none;fillColor=none;align=left;verticalAlign=top;spacingLeft=4;spacingRight=4;overflow=hidden;rotatable=0;points=[[0,0.5],[1,0.5]];portConstraint=eastwest;rounded=0;labelBackgroundColor=none;fontColor=#143642;" parent="l9PI8_7-ofRsT48dgpmU-43" vertex="1"><mxGeometry y="34" width="271" height="26" as="geometry"/></mxCell><mxCell id="l9PI8_7-ofRsT48dgpmU-46" value="" style="endArrow=block;endSize=16;endFill=0;html=1;rounded=0;fontSize=12;entryX=0.506;entryY=0.986;entryDx=0;entryDy=0;entryPerimeter=0;labelBackgroundColor=none;strokeColor=#A8201A;fontColor=default;exitX=0.418;exitY=-0.007;exitDx=0;exitDy=0;exitPerimeter=0;" parent="WIyWlLk6GJQsqaUBKTNV-1" source="W-shWDO9MT4DzFma6A6Y-76" target="Y6HEwSbdjoRSRPUhXtkS-3" edge="1"><mxGeometry x="0.3426" width="160" relative="1" as="geometry"><mxPoint x="1199" y="1255.44" as="sourcePoint"/><mxPoint x="1199" y="1156" as="targetPoint"/><Array as="points"><mxPoint x="1220" y="1186"/></Array><mxPoint as="offset"/></mxGeometry></mxCell><mxCell id="l9PI8_7-ofRsT48dgpmU-64" value="" style="endArrow=none;html=1;rounded=0;fontSize=12;labelBackgroundColor=none;strokeColor=#A8201A;fontColor=default;" parent="WIyWlLk6GJQsqaUBKTNV-1" edge="1"><mxGeometry width="50" height="50" relative="1" as="geometry"><mxPoint x="1080" y="1656" as="sourcePoint"/><mxPoint x="1199" y="1216" as="targetPoint"/><Array as="points"><mxPoint x="1080" y="1216"/></Array></mxGeometry></mxCell><mxCell id="l9PI8_7-ofRsT48dgpmU-65" value="" style="endArrow=none;html=1;rounded=0;fontSize=12;labelBackgroundColor=none;strokeColor=#A8201A;fontColor=default;" parent="WIyWlLk6GJQsqaUBKTNV-1" edge="1"><mxGeometry width="50" height="50" relative="1" as="geometry"><mxPoint x="1039" y="1656" as="sourcePoint"/><mxPoint x="1100" y="1656" as="targetPoint"/></mxGeometry></mxCell><mxCell id="l9PI8_7-ofRsT48dgpmU-66" value="" style="endArrow=none;html=1;rounded=0;fontSize=12;labelBackgroundColor=none;strokeColor=#A8201A;fontColor=default;entryX=0.001;entryY=0.255;entryDx=0;entryDy=0;entryPerimeter=0;" parent="WIyWlLk6GJQsqaUBKTNV-1" target="WhVy480qOBjxfBd9q4s9-2" edge="1"><mxGeometry width="50" height="50" relative="1" as="geometry"><mxPoint x="1039" y="1536" as="sourcePoint"/><mxPoint x="1089" y="1536" as="targetPoint"/></mxGeometry></mxCell><mxCell id="l9PI8_7-ofRsT48dgpmU-67" value="" style="endArrow=none;html=1;rounded=0;fontSize=12;labelBackgroundColor=none;strokeColor=#A8201A;fontColor=default;entryX=-0.002;entryY=0.219;entryDx=0;entryDy=0;entryPerimeter=0;" parent="WIyWlLk6GJQsqaUBKTNV-1" target="WhVy480qOBjxfBd9q4s9-4" edge="1"><mxGeometry width="50" height="50" relative="1" as="geometry"><mxPoint x="1360" y="1416" as="sourcePoint"/><mxPoint x="1420" y="1406" as="targetPoint"/><Array as="points"><mxPoint x="1380" y="1416"/></Array></mxGeometry></mxCell><mxCell id="l9PI8_7-ofRsT48dgpmU-68" value="" style="endArrow=none;html=1;rounded=0;fontSize=12;labelBackgroundColor=none;strokeColor=#A8201A;fontColor=default;entryX=-0.002;entryY=0.255;entryDx=0;entryDy=0;entryPerimeter=0;" parent="WIyWlLk6GJQsqaUBKTNV-1" target="WhVy480qOBjxfBd9q4s9-5" edge="1"><mxGeometry width="50" height="50" relative="1" as="geometry"><mxPoint x="1039" y="1416" as="sourcePoint"/><mxPoint x="1089" y="1416" as="targetPoint"/></mxGeometry></mxCell><mxCell id="l9PI8_7-ofRsT48dgpmU-69" value="" style="endArrow=none;html=1;rounded=0;fontSize=12;labelBackgroundColor=none;strokeColor=#A8201A;fontColor=default;exitX=0.999;exitY=0.256;exitDx=0;exitDy=0;exitPerimeter=0;" parent="WIyWlLk6GJQsqaUBKTNV-1" source="WhVy480qOBjxfBd9q4s9-2" edge="1"><mxGeometry width="50" height="50" relative="1" as="geometry"><mxPoint x="1370" y="1536" as="sourcePoint"/><mxPoint x="1420" y="1536" as="targetPoint"/></mxGeometry></mxCell><mxCell id="l9PI8_7-ofRsT48dgpmU-70" value="" style="endArrow=none;html=1;rounded=0;fontSize=12;labelBackgroundColor=none;strokeColor=#A8201A;fontColor=default;exitX=0.999;exitY=-0.128;exitDx=0;exitDy=0;exitPerimeter=0;" parent="WIyWlLk6GJQsqaUBKTNV-1" source="WhVy480qOBjxfBd9q4s9-9" edge="1"><mxGeometry width="50" height="50" relative="1" as="geometry"><mxPoint x="1370" y="1646" as="sourcePoint"/><mxPoint x="1420" y="1646" as="targetPoint"/></mxGeometry></mxCell><mxCell id="l9PI8_7-ofRsT48dgpmU-71" value="" style="endArrow=none;html=1;rounded=0;fontSize=12;labelBackgroundColor=none;strokeColor=#A8201A;fontColor=default;" parent="WIyWlLk6GJQsqaUBKTNV-1" edge="1"><mxGeometry width="50" height="50" relative="1" as="geometry"><mxPoint x="1339" y="1216" as="sourcePoint"/><mxPoint x="1390" y="1646" as="targetPoint"/><Array as="points"><mxPoint x="1199" y="1216"/><mxPoint x="1390" y="1216"/></Array></mxGeometry></mxCell><mxCell id="l9PI8_7-ofRsT48dgpmU-72" value="" style="endArrow=none;html=1;rounded=0;fontSize=12;labelBackgroundColor=none;strokeColor=#A8201A;fontColor=default;entryX=0;entryY=0.231;entryDx=0;entryDy=0;entryPerimeter=0;" parent="WIyWlLk6GJQsqaUBKTNV-1" target="WhVy480qOBjxfBd9q4s9-7" edge="1"><mxGeometry width="50" height="50" relative="1" as="geometry"><mxPoint x="1039" y="1296" as="sourcePoint"/><mxPoint x="1089" y="1296" as="targetPoint"/></mxGeometry></mxCell><mxCell id="-WPbnEKzYOVtfoh_vQWN-1" value="" style="endArrow=open;html=1;endSize=12;startArrow=diamondThin;startSize=14;startFill=0;edgeStyle=orthogonalEdgeStyle;rounded=0;fontSize=12;labelBackgroundColor=none;strokeColor=#A8201A;fontColor=default;" parent="WIyWlLk6GJQsqaUBKTNV-1" edge="1"><mxGeometry x="0.125" relative="1" as="geometry"><mxPoint x="929" y="1113.58" as="sourcePoint"/><mxPoint x="1089" y="1113.58" as="targetPoint"/><mxPoint as="offset"/></mxGeometry></mxCell><mxCell id="-WPbnEKzYOVtfoh_vQWN-2" value="1" style="edgeLabel;resizable=0;html=1;align=left;verticalAlign=top;fontSize=16;rounded=0;labelBackgroundColor=none;fontColor=#143642;" parent="-WPbnEKzYOVtfoh_vQWN-1" connectable="0" vertex="1"><mxGeometry x="-1" relative="1" as="geometry"><mxPoint x="11" as="offset"/></mxGeometry></mxCell><mxCell id="-WPbnEKzYOVtfoh_vQWN-3" value="1" style="edgeLabel;resizable=0;html=1;align=right;verticalAlign=top;fontSize=16;rounded=0;labelBackgroundColor=none;fontColor=#143642;" parent="-WPbnEKzYOVtfoh_vQWN-1" connectable="0" vertex="1"><mxGeometry x="1" relative="1" as="geometry"><mxPoint x="-19" as="offset"/></mxGeometry></mxCell><mxCell id="sbjhCUEC5wQFAyR_Rim3-12" value="strategy" style="edgeLabel;html=1;align=center;verticalAlign=middle;resizable=0;points=[];labelBackgroundColor=none;fontColor=#143642;rounded=0;" parent="-WPbnEKzYOVtfoh_vQWN-1" vertex="1" connectable="0"><mxGeometry x="-0.2352" y="1" relative="1" as="geometry"><mxPoint y="-7" as="offset"/></mxGeometry></mxCell><mxCell id="-WPbnEKzYOVtfoh_vQWN-4" value="" style="endArrow=block;endSize=12;dashed=1;html=1;rounded=0;fontSize=12;edgeStyle=orthogonalEdgeStyle;exitX=0.524;exitY=-0.02;exitDx=0;exitDy=0;exitPerimeter=0;endFill=0;labelBackgroundColor=none;strokeColor=#A8201A;fontColor=default;" parent="WIyWlLk6GJQsqaUBKTNV-1" source="W-shWDO9MT4DzFma6A6Y-40" edge="1"><mxGeometry x="0.7427" width="160" relative="1" as="geometry"><mxPoint x="819" y="986" as="sourcePoint"/><mxPoint x="719" y="967" as="targetPoint"/><Array as="points"><mxPoint x="636" y="996"/><mxPoint x="719" y="996"/></Array><mxPoint as="offset"/></mxGeometry></mxCell><mxCell id="Y6HEwSbdjoRSRPUhXtkS-0" value="Strategy" style="swimlane;fontStyle=1;align=center;verticalAlign=top;childLayout=stackLayout;horizontal=1;startSize=26;horizontalStack=0;resizeParent=1;resizeParentMax=0;resizeLast=0;collapsible=1;marginBottom=0;rounded=0;labelBackgroundColor=none;fillColor=#FAE5C7;strokeColor=#0F8B8D;fontColor=#143642;" parent="WIyWlLk6GJQsqaUBKTNV-1" vertex="1"><mxGeometry x="1089" y="1046" width="260" height="104" as="geometry"/></mxCell><mxCell id="Y6HEwSbdjoRSRPUhXtkS-1" value="- ROWS: int&#10;- COLS: int" style="text;strokeColor=none;fillColor=none;align=left;verticalAlign=top;spacingLeft=4;spacingRight=4;overflow=hidden;rotatable=0;points=[[0,0.5],[1,0.5]];portConstraint=eastwest;rounded=0;labelBackgroundColor=none;fontColor=#143642;" parent="Y6HEwSbdjoRSRPUhXtkS-0" vertex="1"><mxGeometry y="26" width="260" height="44" as="geometry"/></mxCell><mxCell id="Y6HEwSbdjoRSRPUhXtkS-2" value="" style="line;strokeWidth=1;fillColor=none;align=left;verticalAlign=middle;spacingTop=-1;spacingLeft=3;spacingRight=3;rotatable=0;labelPosition=right;points=[];portConstraint=eastwest;strokeColor=#0F8B8D;rounded=0;labelBackgroundColor=none;fontColor=#143642;" parent="Y6HEwSbdjoRSRPUhXtkS-0" vertex="1"><mxGeometry y="70" width="260" height="8" as="geometry"/></mxCell><mxCell id="Y6HEwSbdjoRSRPUhXtkS-3" value="+ checkMatch(Card[ROWS][COLS]): boolean" style="text;strokeColor=none;fillColor=none;align=left;verticalAlign=top;spacingLeft=4;spacingRight=4;overflow=hidden;rotatable=0;points=[[0,0.5],[1,0.5]];portConstraint=eastwest;rounded=0;labelBackgroundColor=none;fontColor=#143642;" parent="Y6HEwSbdjoRSRPUhXtkS-0" vertex="1"><mxGeometry y="78" width="260" height="26" as="geometry"/></mxCell><mxCell id="Y6HEwSbdjoRSRPUhXtkS-7" value="&lt;&lt;enumeration&gt;&gt;&#10;State" style="swimlane;fontStyle=0;childLayout=stackLayout;horizontal=1;startSize=26;fillColor=none;horizontalStack=0;resizeParent=1;resizeParentMax=0;resizeLast=0;collapsible=1;marginBottom=0;rounded=0;labelBackgroundColor=none;strokeColor=#0F8B8D;fontColor=#143642;" parent="WIyWlLk6GJQsqaUBKTNV-1" vertex="1"><mxGeometry x="1449" y="142" width="140" height="110" as="geometry"/></mxCell><mxCell id="Y6HEwSbdjoRSRPUhXtkS-8" value="ACTIVE" style="text;strokeColor=none;fillColor=none;align=left;verticalAlign=top;spacingLeft=4;spacingRight=4;overflow=hidden;rotatable=0;points=[[0,0.5],[1,0.5]];portConstraint=eastwest;rounded=0;labelBackgroundColor=none;fontColor=#143642;" parent="Y6HEwSbdjoRSRPUhXtkS-7" vertex="1"><mxGeometry y="26" width="140" height="26" as="geometry"/></mxCell><mxCell id="Y6HEwSbdjoRSRPUhXtkS-9" value="NOT_ACTIVE&#10;&#10;DISCONNECTED" style="text;strokeColor=none;fillColor=none;align=left;verticalAlign=top;spacingLeft=4;spacingRight=4;overflow=hidden;rotatable=0;points=[[0,0.5],[1,0.5]];portConstraint=eastwest;rounded=0;labelBackgroundColor=none;fontColor=#143642;" parent="Y6HEwSbdjoRSRPUhXtkS-7" vertex="1"><mxGeometry y="52" width="140" height="58" as="geometry"/></mxCell><mxCell id="Y6HEwSbdjoRSRPUhXtkS-11" value="" style="endArrow=open;endFill=1;endSize=12;html=1;rounded=0;exitX=-0.021;exitY=0.127;exitDx=0;exitDy=0;exitPerimeter=0;labelBackgroundColor=none;strokeColor=#A8201A;fontColor=default;" parent="WIyWlLk6GJQsqaUBKTNV-1" source="Y6HEwSbdjoRSRPUhXtkS-7" edge="1"><mxGeometry width="160" relative="1" as="geometry"><mxPoint x="1119" y="446" as="sourcePoint"/><mxPoint x="1180" y="156" as="targetPoint"/></mxGeometry></mxCell><mxCell id="sbjhCUEC5wQFAyR_Rim3-14" value="classificate" style="edgeLabel;html=1;align=center;verticalAlign=middle;resizable=0;points=[];labelBackgroundColor=none;fontColor=#143642;rounded=0;" parent="Y6HEwSbdjoRSRPUhXtkS-11" vertex="1" connectable="0"><mxGeometry x="0.1936" y="-2" relative="1" as="geometry"><mxPoint y="13" as="offset"/></mxGeometry></mxCell><mxCell id="Y6HEwSbdjoRSRPUhXtkS-12" value="fill" style="endArrow=diamondThin;endFill=1;endSize=24;html=1;rounded=0;labelBackgroundColor=none;strokeColor=#A8201A;fontColor=default;entryX=0.497;entryY=1.018;entryDx=0;entryDy=0;entryPerimeter=0;" parent="WIyWlLk6GJQsqaUBKTNV-1" target="Mgfd83Ul1ALBCCJsqbtd-16" edge="1"><mxGeometry x="-0.2253" y="-10" width="160" relative="1" as="geometry"><mxPoint x="1220" y="466" as="sourcePoint"/><mxPoint x="1080" y="406" as="targetPoint"/><Array as="points"><mxPoint x="1130" y="466"/><mxPoint x="1024" y="466"/><mxPoint x="1024" y="436"/></Array><mxPoint as="offset"/></mxGeometry></mxCell><mxCell id="Y6HEwSbdjoRSRPUhXtkS-14" value="" style="endArrow=open;endFill=1;endSize=12;html=1;rounded=0;exitX=0;exitY=0.3;exitDx=0;exitDy=0;entryX=0.144;entryY=1.015;entryDx=0;entryDy=0;entryPerimeter=0;exitPerimeter=0;labelBackgroundColor=none;strokeColor=#A8201A;fontColor=default;" parent="WIyWlLk6GJQsqaUBKTNV-1" source="W-shWDO9MT4DzFma6A6Y-28" target="Mgfd83Ul1ALBCCJsqbtd-11" edge="1"><mxGeometry width="160" relative="1" as="geometry"><mxPoint x="1119" y="636" as="sourcePoint"/><mxPoint x="370" y="697.932" as="targetPoint"/><Array as="points"><mxPoint x="570" y="876"/></Array></mxGeometry></mxCell><mxCell id="sbjhCUEC5wQFAyR_Rim3-10" value="regulate" style="edgeLabel;html=1;align=center;verticalAlign=middle;resizable=0;points=[];labelBackgroundColor=none;fontColor=#143642;rounded=0;" parent="Y6HEwSbdjoRSRPUhXtkS-14" vertex="1" connectable="0"><mxGeometry x="-0.0764" y="2" relative="1" as="geometry"><mxPoint x="-29" y="-50" as="offset"/></mxGeometry></mxCell><mxCell id="Y6HEwSbdjoRSRPUhXtkS-35" value="" style="endArrow=none;endFill=0;endSize=12;html=1;rounded=0;labelBackgroundColor=none;strokeColor=#A8201A;fontColor=default;startArrow=block;startFill=1;entryX=0.956;entryY=-0.022;entryDx=0;entryDy=0;entryPerimeter=0;exitX=1;exitY=0.108;exitDx=0;exitDy=0;exitPerimeter=0;" parent="WIyWlLk6GJQsqaUBKTNV-1" source="Mgfd83Ul1ALBCCJsqbtd-11" edge="1"><mxGeometry width="160" relative="1" as="geometry"><mxPoint x="795" y="471" as="sourcePoint"/><mxPoint x="869.6800000000001" y="296" as="targetPoint"/><Array as="points"><mxPoint x="841" y="469.66"/><mxPoint x="841" y="296.65999999999997"/></Array></mxGeometry></mxCell><mxCell id="sbjhCUEC5wQFAyR_Rim3-3" value="plays with" style="edgeLabel;html=1;align=center;verticalAlign=middle;resizable=0;points=[];labelBackgroundColor=none;fontColor=#143642;rounded=0;" parent="Y6HEwSbdjoRSRPUhXtkS-35" vertex="1" connectable="0"><mxGeometry x="0.0549" y="-2" relative="1" as="geometry"><mxPoint x="32" y="45" as="offset"/></mxGeometry></mxCell><mxCell id="Y6HEwSbdjoRSRPUhXtkS-38" value="observer" style="text;html=1;align=center;verticalAlign=middle;resizable=0;points=[];autosize=1;strokeColor=none;fillColor=none;rounded=0;labelBackgroundColor=none;fontColor=#143642;" parent="WIyWlLk6GJQsqaUBKTNV-1" vertex="1"><mxGeometry x="620" y="131" width="70" height="30" as="geometry"/></mxCell><mxCell id="Y6HEwSbdjoRSRPUhXtkS-44" value="CommonObjective" style="swimlane;fontStyle=1;align=center;verticalAlign=top;childLayout=stackLayout;horizontal=1;startSize=26;horizontalStack=0;resizeParent=1;resizeParentMax=0;resizeLast=0;collapsible=1;marginBottom=0;rounded=0;labelBackgroundColor=none;fillColor=#FAE5C7;strokeColor=#0F8B8D;fontColor=#143642;" parent="WIyWlLk6GJQsqaUBKTNV-1" vertex="1"><mxGeometry x="770" y="1086" width="160" height="86" as="geometry"/></mxCell><mxCell id="Y6HEwSbdjoRSRPUhXtkS-45" value="- algorithm: Strategy" style="text;strokeColor=none;fillColor=none;align=left;verticalAlign=top;spacingLeft=4;spacingRight=4;overflow=hidden;rotatable=0;points=[[0,0.5],[1,0.5]];portConstraint=eastwest;rounded=0;labelBackgroundColor=none;fontColor=#143642;" parent="Y6HEwSbdjoRSRPUhXtkS-44" vertex="1"><mxGeometry y="26" width="160" height="26" as="geometry"/></mxCell><mxCell id="Y6HEwSbdjoRSRPUhXtkS-46" value="" style="line;strokeWidth=1;fillColor=none;align=left;verticalAlign=middle;spacingTop=-1;spacingLeft=3;spacingRight=3;rotatable=0;labelPosition=right;points=[];portConstraint=eastwest;strokeColor=#0F8B8D;rounded=0;labelBackgroundColor=none;fontColor=#143642;" parent="Y6HEwSbdjoRSRPUhXtkS-44" vertex="1"><mxGeometry y="52" width="160" height="8" as="geometry"/></mxCell><mxCell id="Y6HEwSbdjoRSRPUhXtkS-47" value="+ draw():" style="text;strokeColor=none;fillColor=none;align=left;verticalAlign=top;spacingLeft=4;spacingRight=4;overflow=hidden;rotatable=0;points=[[0,0.5],[1,0.5]];portConstraint=eastwest;rounded=0;labelBackgroundColor=none;fontColor=#143642;" parent="Y6HEwSbdjoRSRPUhXtkS-44" vertex="1"><mxGeometry y="60" width="160" height="26" as="geometry"/></mxCell><mxCell id="Y6HEwSbdjoRSRPUhXtkS-53" value="1" style="text;html=1;align=center;verticalAlign=middle;resizable=0;points=[];autosize=1;strokeColor=none;fillColor=none;rounded=0;labelBackgroundColor=none;fontColor=#143642;" parent="WIyWlLk6GJQsqaUBKTNV-1" vertex="1"><mxGeometry x="845" y="266" width="30" height="30" as="geometry"/></mxCell><mxCell id="Y6HEwSbdjoRSRPUhXtkS-54" value="1" style="text;html=1;align=center;verticalAlign=middle;resizable=0;points=[];autosize=1;strokeColor=none;fillColor=none;rounded=0;labelBackgroundColor=none;fontColor=#143642;" parent="WIyWlLk6GJQsqaUBKTNV-1" vertex="1"><mxGeometry x="790" y="476" width="30" height="30" as="geometry"/></mxCell><mxCell id="Y6HEwSbdjoRSRPUhXtkS-55" value="1" style="text;html=1;align=center;verticalAlign=middle;resizable=0;points=[];autosize=1;strokeColor=none;fillColor=none;rounded=0;labelBackgroundColor=none;fontColor=#143642;" parent="WIyWlLk6GJQsqaUBKTNV-1" vertex="1"><mxGeometry x="1030" y="386" width="30" height="30" as="geometry"/></mxCell><mxCell id="Y6HEwSbdjoRSRPUhXtkS-56" value="1" style="text;html=1;align=center;verticalAlign=middle;resizable=0;points=[];autosize=1;strokeColor=none;fillColor=none;rounded=0;labelBackgroundColor=none;fontColor=#143642;" parent="WIyWlLk6GJQsqaUBKTNV-1" vertex="1"><mxGeometry x="1184" y="426" width="30" height="30" as="geometry"/></mxCell><mxCell id="Y6HEwSbdjoRSRPUhXtkS-57" value="0:45" style="text;html=1;align=center;verticalAlign=middle;resizable=0;points=[];autosize=1;strokeColor=none;fillColor=none;rounded=0;labelBackgroundColor=none;fontColor=#143642;" parent="WIyWlLk6GJQsqaUBKTNV-1" vertex="1"><mxGeometry x="1089" y="746" width="50" height="30" as="geometry"/></mxCell><mxCell id="Y6HEwSbdjoRSRPUhXtkS-58" value="1" style="text;html=1;align=center;verticalAlign=middle;resizable=0;points=[];autosize=1;strokeColor=none;fillColor=none;rounded=0;labelBackgroundColor=none;fontColor=#143642;" parent="WIyWlLk6GJQsqaUBKTNV-1" vertex="1"><mxGeometry x="789" y="591" width="30" height="30" as="geometry"/></mxCell><mxCell id="Y6HEwSbdjoRSRPUhXtkS-61" value="1" style="text;html=1;align=center;verticalAlign=middle;resizable=0;points=[];autosize=1;strokeColor=none;fillColor=none;rounded=0;labelBackgroundColor=none;fontColor=#143642;" parent="WIyWlLk6GJQsqaUBKTNV-1" vertex="1"><mxGeometry x="580" y="696" width="30" height="30" as="geometry"/></mxCell><mxCell id="Y6HEwSbdjoRSRPUhXtkS-62" value="2" style="text;html=1;align=center;verticalAlign=middle;resizable=0;points=[];autosize=1;strokeColor=none;fillColor=none;rounded=0;labelBackgroundColor=none;fontColor=#143642;" parent="WIyWlLk6GJQsqaUBKTNV-1" vertex="1"><mxGeometry x="600" y="846" width="30" height="30" as="geometry"/></mxCell><mxCell id="Y6HEwSbdjoRSRPUhXtkS-63" value="" style="endArrow=open;endFill=1;endSize=12;html=1;rounded=0;entryX=1.006;entryY=0.33;entryDx=0;entryDy=0;entryPerimeter=0;labelBackgroundColor=none;strokeColor=#A8201A;fontColor=default;exitX=1.023;exitY=0.305;exitDx=0;exitDy=0;exitPerimeter=0;" parent="WIyWlLk6GJQsqaUBKTNV-1" source="W-shWDO9MT4DzFma6A6Y-28" target="Mgfd83Ul1ALBCCJsqbtd-16" edge="1"><mxGeometry width="160" relative="1" as="geometry"><mxPoint x="1049" y="906" as="sourcePoint"/><mxPoint x="1680" y="386" as="targetPoint"/><Array as="points"><mxPoint x="1660" y="877"/><mxPoint x="1660" y="596"/><mxPoint x="1660" y="299"/></Array></mxGeometry></mxCell><mxCell id="sbjhCUEC5wQFAyR_Rim3-8" value="follow" style="edgeLabel;html=1;align=center;verticalAlign=middle;resizable=0;points=[];labelBackgroundColor=none;fontColor=#143642;rounded=0;" parent="Y6HEwSbdjoRSRPUhXtkS-63" vertex="1" connectable="0"><mxGeometry x="0.8658" y="1" relative="1" as="geometry"><mxPoint x="-1" y="-15" as="offset"/></mxGeometry></mxCell><mxCell id="Y6HEwSbdjoRSRPUhXtkS-64" value="1" style="text;html=1;align=center;verticalAlign=middle;resizable=0;points=[];autosize=1;strokeColor=none;fillColor=none;rounded=0;labelBackgroundColor=none;fontColor=#143642;" parent="WIyWlLk6GJQsqaUBKTNV-1" vertex="1"><mxGeometry x="810" y="846" width="30" height="30" as="geometry"/></mxCell><mxCell id="Y6HEwSbdjoRSRPUhXtkS-65" value="1" style="text;html=1;align=center;verticalAlign=middle;resizable=0;points=[];autosize=1;strokeColor=none;fillColor=none;rounded=0;labelBackgroundColor=none;fontColor=#143642;" parent="WIyWlLk6GJQsqaUBKTNV-1" vertex="1"><mxGeometry x="1190" y="266" width="30" height="30" as="geometry"/></mxCell><mxCell id="BPfrmEiQQp0NmsHtDl97-0" value="" style="endArrow=diamondThin;endFill=0;endSize=24;html=1;rounded=0;exitX=0.25;exitY=0;exitDx=0;exitDy=0;labelBackgroundColor=none;strokeColor=#A8201A;fontColor=default;entryX=-0.01;entryY=0.442;entryDx=0;entryDy=0;entryPerimeter=0;" parent="WIyWlLk6GJQsqaUBKTNV-1" source="W-shWDO9MT4DzFma6A6Y-10" target="W-shWDO9MT4DzFma6A6Y-3" edge="1"><mxGeometry width="160" relative="1" as="geometry"><mxPoint x="1020" y="586" as="sourcePoint"/><mxPoint x="1179" y="556" as="targetPoint"/><Array as="points"><mxPoint x="1179" y="556"/></Array></mxGeometry></mxCell><mxCell id="sbjhCUEC5wQFAyR_Rim3-1" value="contains" style="edgeLabel;html=1;align=center;verticalAlign=middle;resizable=0;points=[];labelBackgroundColor=none;fontColor=#143642;rounded=0;" parent="BPfrmEiQQp0NmsHtDl97-0" vertex="1" connectable="0"><mxGeometry x="-0.3974" y="-1" relative="1" as="geometry"><mxPoint x="-30" y="-9" as="offset"/></mxGeometry></mxCell><mxCell id="BPfrmEiQQp0NmsHtDl97-2" value="30" style="text;html=1;align=center;verticalAlign=middle;resizable=0;points=[];autosize=1;strokeColor=none;fillColor=none;rounded=0;labelBackgroundColor=none;fontColor=#143642;" parent="WIyWlLk6GJQsqaUBKTNV-1" vertex="1"><mxGeometry x="1190" y="656" width="40" height="30" as="geometry"/></mxCell><mxCell id="LeQZc85mg7QLgke8wjnS-1" value="" style="endArrow=none;dashed=1;html=1;rounded=0;labelBackgroundColor=none;strokeColor=#A8201A;fontColor=default;edgeStyle=orthogonalEdgeStyle;" parent="WIyWlLk6GJQsqaUBKTNV-1" edge="1"><mxGeometry width="50" height="50" relative="1" as="geometry"><mxPoint x="860" y="1086" as="sourcePoint"/><mxPoint x="860" y="996" as="targetPoint"/></mxGeometry></mxCell><mxCell id="LeQZc85mg7QLgke8wjnS-2" value="" style="endArrow=none;dashed=1;html=1;dashPattern=1 3;strokeWidth=2;rounded=0;strokeColor=#A8201A;fontColor=default;fillColor=#FAE5C7;labelBackgroundColor=none;" parent="WIyWlLk6GJQsqaUBKTNV-1" edge="1"><mxGeometry width="50" height="50" relative="1" as="geometry"><mxPoint x="720" y="996" as="sourcePoint"/><mxPoint x="860" y="996" as="targetPoint"/></mxGeometry></mxCell><mxCell id="LeQZc85mg7QLgke8wjnS-3" value="observable" style="text;html=1;align=center;verticalAlign=middle;resizable=0;points=[];autosize=1;strokeColor=none;fillColor=none;fontColor=#143642;labelBackgroundColor=none;rounded=0;" parent="WIyWlLk6GJQsqaUBKTNV-1" vertex="1"><mxGeometry x="615" y="161" width="80" height="30" as="geometry"/></mxCell><mxCell id="BPfrmEiQQp0NmsHtDl97-1" value="1" style="text;html=1;align=center;verticalAlign=middle;resizable=0;points=[];autosize=1;strokeColor=none;fillColor=none;rounded=0;labelBackgroundColor=none;fontColor=#143642;" parent="WIyWlLk6GJQsqaUBKTNV-1" vertex="1"><mxGeometry x="1109" y="561" width="200" height="30" as="geometry"/></mxCell><mxCell id="9a2x5Qapg8-03h2hcj_5-0" value="" style="endArrow=classic;startArrow=classic;html=1;rounded=0;exitX=1.003;exitY=0.121;exitDx=0;exitDy=0;exitPerimeter=0;entryX=-0.01;entryY=0.158;entryDx=0;entryDy=0;entryPerimeter=0;labelBackgroundColor=none;strokeColor=#A8201A;fontColor=default;" parent="WIyWlLk6GJQsqaUBKTNV-1" source="Mgfd83Ul1ALBCCJsqbtd-1" target="Mgfd83Ul1ALBCCJsqbtd-14" edge="1"><mxGeometry width="50" height="50" relative="1" as="geometry"><mxPoint x="760" y="496" as="sourcePoint"/><mxPoint x="810" y="446" as="targetPoint"/></mxGeometry></mxCell><mxCell id="9a2x5Qapg8-03h2hcj_5-3" value="" style="endArrow=open;endFill=1;endSize=12;html=1;rounded=0;exitX=-0.003;exitY=0.921;exitDx=0;exitDy=0;exitPerimeter=0;entryX=1;entryY=0.806;entryDx=0;entryDy=0;entryPerimeter=0;labelBackgroundColor=none;strokeColor=#A8201A;fontColor=default;" parent="WIyWlLk6GJQsqaUBKTNV-1" source="Mgfd83Ul1ALBCCJsqbtd-14" target="Mgfd83Ul1ALBCCJsqbtd-1" edge="1"><mxGeometry width="160" relative="1" as="geometry"><mxPoint x="690" y="306" as="sourcePoint"/><mxPoint x="850" y="306" as="targetPoint"/></mxGeometry></mxCell><mxCell id="9a2x5Qapg8-03h2hcj_5-6" value="plays in" style="edgeLabel;html=1;align=center;verticalAlign=middle;resizable=0;points=[];labelBackgroundColor=none;fontColor=#143642;rounded=0;" parent="9a2x5Qapg8-03h2hcj_5-3" vertex="1" connectable="0"><mxGeometry x="-0.0312" y="1" relative="1" as="geometry"><mxPoint x="2" y="-16" as="offset"/></mxGeometry></mxCell><mxCell id="9a2x5Qapg8-03h2hcj_5-4" value="2:4" style="text;html=1;align=center;verticalAlign=middle;resizable=0;points=[];autosize=1;strokeColor=none;fillColor=none;labelBackgroundColor=none;fontColor=#143642;rounded=0;" parent="WIyWlLk6GJQsqaUBKTNV-1" vertex="1"><mxGeometry x="835" y="216" width="40" height="30" as="geometry"/></mxCell><mxCell id="9a2x5Qapg8-03h2hcj_5-5" value="1" style="text;html=1;align=center;verticalAlign=middle;resizable=0;points=[];autosize=1;strokeColor=none;fillColor=none;labelBackgroundColor=none;fontColor=#143642;rounded=0;" parent="WIyWlLk6GJQsqaUBKTNV-1" vertex="1"><mxGeometry x="400" y="216" width="30" height="30" as="geometry"/></mxCell><mxCell id="88-YXf-LVn98FsWDfuD8-4" value="Intializer" style="swimlane;fontStyle=1;align=center;verticalAlign=top;childLayout=stackLayout;horizontal=1;startSize=26;horizontalStack=0;resizeParent=1;resizeParentMax=0;resizeLast=0;collapsible=1;marginBottom=0;labelBackgroundColor=none;fillColor=#FAE5C7;strokeColor=#0F8B8D;fontColor=#143642;rounded=0;" parent="WIyWlLk6GJQsqaUBKTNV-1" vertex="1"><mxGeometry x="110" y="506" width="280" height="160" as="geometry"/></mxCell><mxCell id="88-YXf-LVn98FsWDfuD8-5" value="+ ROWS: int&#10;+ COLS: int" style="text;strokeColor=none;fillColor=none;align=left;verticalAlign=top;spacingLeft=4;spacingRight=4;overflow=hidden;rotatable=0;points=[[0,0.5],[1,0.5]];portConstraint=eastwest;fontStyle=4;labelBackgroundColor=none;fontColor=#143642;rounded=0;" parent="88-YXf-LVn98FsWDfuD8-4" vertex="1"><mxGeometry y="26" width="280" height="54" as="geometry"/></mxCell><mxCell id="88-YXf-LVn98FsWDfuD8-6" value="" style="line;strokeWidth=1;fillColor=none;align=left;verticalAlign=middle;spacingTop=-1;spacingLeft=3;spacingRight=3;rotatable=0;labelPosition=right;points=[];portConstraint=eastwest;strokeColor=#0F8B8D;labelBackgroundColor=none;fontColor=#143642;rounded=0;" parent="88-YXf-LVn98FsWDfuD8-4" vertex="1"><mxGeometry y="80" width="280" height="8" as="geometry"/></mxCell><mxCell id="88-YXf-LVn98FsWDfuD8-7" value="+ setEmpty(): Card[][]&#10;+ setBucketOfPO(): ArrayList&lt;PrivateObjective&gt;&#10;+ setBucketOfCO(): ArrayList&lt;CommonObjective&gt;" style="text;strokeColor=none;fillColor=none;align=left;verticalAlign=top;spacingLeft=4;spacingRight=4;overflow=hidden;rotatable=0;points=[[0,0.5],[1,0.5]];portConstraint=eastwest;fontStyle=4;labelBackgroundColor=none;fontColor=#143642;rounded=0;" parent="88-YXf-LVn98FsWDfuD8-4" vertex="1"><mxGeometry y="88" width="280" height="72" as="geometry"/></mxCell><mxCell id="88-YXf-LVn98FsWDfuD8-8" value="exploit" style="endArrow=open;endFill=1;endSize=11;html=1;rounded=0;exitX=0.461;exitY=-0.006;exitDx=0;exitDy=0;exitPerimeter=0;labelBackgroundColor=none;strokeColor=#A8201A;fontColor=default;dashed=1;entryX=0.482;entryY=1.005;entryDx=0;entryDy=0;entryPerimeter=0;" parent="WIyWlLk6GJQsqaUBKTNV-1" source="88-YXf-LVn98FsWDfuD8-4" target="Mgfd83Ul1ALBCCJsqbtd-3" edge="1"><mxGeometry x="0.0439" y="-31" width="160" relative="1" as="geometry"><mxPoint x="530" y="496" as="sourcePoint"/><mxPoint x="240" y="416" as="targetPoint"/><mxPoint as="offset"/></mxGeometry></mxCell><mxCell id="0" value="DFSHelper" style="swimlane;fontStyle=1;align=center;verticalAlign=top;childLayout=stackLayout;horizontal=1;startSize=26;horizontalStack=0;resizeParent=1;resizeParentMax=0;resizeLast=0;collapsible=1;marginBottom=0;rounded=0;fillColor=#FAE5C7;strokeColor=#0F8B8D;fontColor=#143642;labelBackgroundColor=none;" parent="WIyWlLk6GJQsqaUBKTNV-1" vertex="1"><mxGeometry x="1520" y="1026" width="210" height="160" as="geometry"/></mxCell><mxCell id="1" value="- ROWS: int&#10;- COLS: int" style="text;strokeColor=none;fillColor=none;align=left;verticalAlign=top;spacingLeft=4;spacingRight=4;overflow=hidden;rotatable=0;points=[[0,0.5],[1,0.5]];portConstraint=eastwest;rounded=0;fontColor=#143642;fontStyle=4;labelBackgroundColor=none;" parent="0" vertex="1"><mxGeometry y="26" width="210" height="54" as="geometry"/></mxCell><mxCell id="2" value="" style="line;strokeWidth=1;fillColor=none;align=left;verticalAlign=middle;spacingTop=-1;spacingLeft=3;spacingRight=3;rotatable=0;labelPosition=right;points=[];portConstraint=eastwest;strokeColor=#0F8B8D;rounded=0;fontColor=#143642;labelBackgroundColor=none;" parent="0" vertex="1"><mxGeometry y="80" width="210" height="8" as="geometry"/></mxCell><mxCell id="3" value="+ resetVisitedMatrix(int[][])&#10;+ isIndexValid(int, int): boolean&#10;+ isVisited(int, int, int[][]): boolean" style="text;strokeColor=none;fillColor=none;align=left;verticalAlign=top;spacingLeft=4;spacingRight=4;overflow=hidden;rotatable=0;points=[[0,0.5],[1,0.5]];portConstraint=eastwest;rounded=0;fontColor=#143642;fontStyle=4;labelBackgroundColor=none;" parent="0" vertex="1"><mxGeometry y="88" width="210" height="72" as="geometry"/></mxCell><mxCell id="4" value="exploit" style="endArrow=open;endFill=1;endSize=11;html=1;rounded=0;exitX=-0.021;exitY=0.798;exitDx=0;exitDy=0;exitPerimeter=0;labelBackgroundColor=none;strokeColor=#A8201A;fontColor=default;dashed=1;" parent="WIyWlLk6GJQsqaUBKTNV-1" source="1" edge="1"><mxGeometry x="-0.0877" y="-10" width="160" relative="1" as="geometry"><mxPoint x="1440" y="1140.3899999999999" as="sourcePoint"/><mxPoint x="1350" y="1096" as="targetPoint"/><mxPoint as="offset"/></mxGeometry></mxCell><mxCell id="11" value="" style="endArrow=none;html=1;rounded=0;fontSize=12;labelBackgroundColor=none;strokeColor=#A8201A;fontColor=default;" parent="WIyWlLk6GJQsqaUBKTNV-1" edge="1"><mxGeometry width="50" height="50" relative="1" as="geometry"><mxPoint x="1371" y="1296.31" as="sourcePoint"/><mxPoint x="1420" y="1296" as="targetPoint"/><Array as="points"><mxPoint x="1391" y="1296.31"/></Array></mxGeometry></mxCell><mxCell id="nTzFyxAhzmFNUlLg8_nq-13" value="Controller&lt;br&gt;" style="text;strokeColor=none;align=center;fillColor=none;html=1;verticalAlign=middle;whiteSpace=wrap;rounded=0;labelBackgroundColor=none;fontColor=#143642;" parent="WIyWlLk6GJQsqaUBKTNV-1" vertex="1"><mxGeometry x="81" y="80" width="60" height="30" as="geometry"/></mxCell><mxCell id="nTzFyxAhzmFNUlLg8_nq-15" value="Model" style="text;html=1;align=center;verticalAlign=middle;resizable=0;points=[];autosize=1;strokeColor=none;fillColor=none;labelBackgroundColor=none;fontColor=#143642;" parent="WIyWlLk6GJQsqaUBKTNV-1" vertex="1"><mxGeometry x="475" y="80" width="60" height="30" as="geometry"/></mxCell><mxCell id="SSxcXqiNUK--LgKjHi_6-11" value="CLIHelper" style="swimlane;fontStyle=1;align=center;verticalAlign=top;childLayout=stackLayout;horizontal=1;startSize=26;horizontalStack=0;resizeParent=1;resizeParentMax=0;resizeLast=0;collapsible=1;marginBottom=0;labelBackgroundColor=none;fillColor=#FAE5C7;strokeColor=#0F8B8D;fontColor=#143642;" parent="WIyWlLk6GJQsqaUBKTNV-1" vertex="1"><mxGeometry x="2020" y="142" width="250" height="100" as="geometry"/></mxCell><mxCell id="SSxcXqiNUK--LgKjHi_6-12" value="+ active: boolean" style="text;strokeColor=none;fillColor=none;align=left;verticalAlign=top;spacingLeft=4;spacingRight=4;overflow=hidden;rotatable=0;points=[[0,0.5],[1,0.5]];portConstraint=eastwest;labelBackgroundColor=none;fontColor=#143642;fontStyle=4" parent="SSxcXqiNUK--LgKjHi_6-11" vertex="1"><mxGeometry y="26" width="250" height="26" as="geometry"/></mxCell><mxCell id="SSxcXqiNUK--LgKjHi_6-13" value="" style="line;strokeWidth=1;fillColor=none;align=left;verticalAlign=middle;spacingTop=-1;spacingLeft=3;spacingRight=3;rotatable=0;labelPosition=right;points=[];portConstraint=eastwest;strokeColor=#0F8B8D;labelBackgroundColor=none;fontColor=#143642;" parent="SSxcXqiNUK--LgKjHi_6-11" vertex="1"><mxGeometry y="52" width="250" height="8" as="geometry"/></mxCell><mxCell id="SSxcXqiNUK--LgKjHi_6-14" value="- mapColor(Color): char&#10;+ drawMatrix(Card[][], int, int, String)" style="text;strokeColor=none;fillColor=none;align=left;verticalAlign=top;spacingLeft=4;spacingRight=4;overflow=hidden;rotatable=0;points=[[0,0.5],[1,0.5]];portConstraint=eastwest;labelBackgroundColor=none;fontColor=#143642;fontStyle=4" parent="SSxcXqiNUK--LgKjHi_6-11" vertex="1"><mxGeometry y="60" width="250" height="40" as="geometry"/></mxCell><mxCell id="SSxcXqiNUK--LgKjHi_6-16" value="" style="endArrow=open;endFill=1;endSize=12;html=1;rounded=0;strokeColor=#A8201A;fontColor=#143642;fillColor=#FAE5C7;exitX=0;exitY=0.5;exitDx=0;exitDy=0;entryX=0.989;entryY=0.015;entryDx=0;entryDy=0;entryPerimeter=0;dashed=1;" parent="WIyWlLk6GJQsqaUBKTNV-1" source="SSxcXqiNUK--LgKjHi_6-12" target="Mgfd83Ul1ALBCCJsqbtd-16" edge="1"><mxGeometry width="160" relative="1" as="geometry"><mxPoint x="1790" y="396" as="sourcePoint"/><mxPoint x="1950" y="396" as="targetPoint"/><Array as="points"><mxPoint x="1940" y="181"/><mxPoint x="1940" y="266"/><mxPoint x="1820" y="266"/></Array></mxGeometry></mxCell><mxCell id="SSxcXqiNUK--LgKjHi_6-18" value="exploit" style="text;html=1;align=center;verticalAlign=middle;resizable=0;points=[];autosize=1;strokeColor=none;fillColor=none;fontColor=#143642;" parent="WIyWlLk6GJQsqaUBKTNV-1" vertex="1"><mxGeometry x="1680" y="236" width="60" height="30" as="geometry"/></mxCell><mxCell id="SSxcXqiNUK--LgKjHi_6-21" value="View" style="text;html=1;align=center;verticalAlign=middle;resizable=0;points=[];autosize=1;strokeColor=none;fillColor=none;fontColor=#143642;" parent="WIyWlLk6GJQsqaUBKTNV-1" vertex="1"><mxGeometry x="1954" y="99" width="50" height="30" as="geometry"/></mxCell></root></mxGraphModel></diagram></mxfile>